<svg width="55" height="55" viewBox="0 0 55 55" fill="none" xmlns="http://www.w3.org/2000/svg">
<mask id="mask0_178_171" style="mask-type:alpha" maskUnits="userSpaceOnUse" x="0" y="0" width="55" height="55">
<rect width="55" height="55" fill="#D9D9D9"/>
</mask>
<g mask="url(#mask0_178_171)">
<path d="M14.1995 40.0689C16.1474 38.6675 18.2143 37.5591 20.4002 36.7438C22.5862 35.9285 24.9527 35.5208 27.5 35.5208C30.0473 35.5208 32.4138 35.9285 34.5998 36.7438C36.7857 37.5591 38.8526 38.6675 40.8005 40.0689C42.3136 38.503 43.5307 36.6535 44.4517 34.5204C45.3728 32.3874 45.8333 30.0473 45.8333 27.5C45.8333 22.4201 44.0477 18.0946 40.4766 14.5234C36.9054 10.9523 32.5799 9.16667 27.5 9.16667C22.4201 9.16667 18.0946 10.9523 14.5234 14.5234C10.9523 18.0946 9.16667 22.4201 9.16667 27.5C9.16667 30.0473 9.6272 32.3874 10.5483 34.5204C11.4694 36.6535 12.6864 38.503 14.1995 40.0689ZM27.5013 28.6458C25.5701 28.6458 23.9413 27.983 22.6148 26.6574C21.2883 25.3318 20.625 23.7033 20.625 21.7722C20.625 19.841 21.2878 18.2121 22.6134 16.8856C23.9391 15.5591 25.5675 14.8958 27.4987 14.8958C29.4299 14.8958 31.0587 15.5587 32.3852 16.8843C33.7117 18.2099 34.375 19.8383 34.375 21.7695C34.375 23.7007 33.7122 25.3295 32.3865 26.656C31.0609 27.9826 29.4325 28.6458 27.5013 28.6458ZM27.5 48.125C24.6237 48.125 21.9309 47.5896 19.4219 46.5187C16.9128 45.4477 14.7298 43.9838 12.873 42.127C11.0162 40.2702 9.55228 38.0872 8.48134 35.5781C7.41045 33.0691 6.875 30.3763 6.875 27.5C6.875 24.6237 7.41045 21.9309 8.48134 19.4219C9.55228 16.9128 11.0162 14.7298 12.873 12.873C14.7298 11.0162 16.9128 9.55228 19.4219 8.48135C21.9309 7.41045 24.6237 6.875 27.5 6.875C30.3763 6.875 33.0691 7.41045 35.5781 8.48135C38.0872 9.55228 40.2702 11.0162 42.127 12.873C43.9838 14.7298 45.4477 16.9128 46.5187 19.4219C47.5896 21.9309 48.125 24.6237 48.125 27.5C48.125 30.3763 47.5896 33.0691 46.5187 35.5781C45.4477 38.0872 43.9838 40.2702 42.127 42.127C40.2702 43.9838 38.0872 45.4477 35.5781 46.5187C33.0691 47.5896 30.3763 48.125 27.5 48.125ZM27.5 45.8333C29.6125 45.8333 31.6911 45.4639 33.736 44.725C35.7809 43.9861 37.5481 42.9746 39.0377 41.6907C37.5481 40.4949 35.8249 39.5496 33.8682 38.8548C31.9115 38.1599 29.7887 37.8125 27.5 37.8125C25.2113 37.8125 23.0812 38.1526 21.1098 38.8328C19.1384 39.5129 17.4225 40.4655 15.9623 41.6907C17.4519 42.9746 19.2191 43.9861 21.264 44.725C23.3089 45.4639 25.3875 45.8333 27.5 45.8333ZM27.5 26.3542C28.7868 26.3542 29.8724 25.912 30.7568 25.0276C31.6412 24.1433 32.0833 23.0577 32.0833 21.7708C32.0833 20.484 31.6412 19.3984 30.7568 18.514C29.8724 17.6297 28.7868 17.1875 27.5 17.1875C26.2132 17.1875 25.1276 17.6297 24.2432 18.514C23.3588 19.3984 22.9167 20.484 22.9167 21.7708C22.9167 23.0577 23.3588 24.1433 24.2432 25.0276C25.1276 25.912 26.2132 26.3542 27.5 26.3542Z" fill="#1C1B1F"/>
</g>
</svg>
