<svg width="300" height="300" viewBox="0 0 300 300" fill="none" xmlns="http://www.w3.org/2000/svg">
<circle cx="150" cy="150" r="150" fill="url(#paint0_linear_178_125)"/>
<mask id="mask0_178_125" style="mask-type:alpha" maskUnits="userSpaceOnUse" x="52" y="170" width="195" height="61">
<rect x="52" y="170" width="195" height="61" fill="#D9D9D9"/>
</mask>
<g mask="url(#mask0_178_125)">
<mask id="mask1_178_125" style="mask-type:alpha" maskUnits="userSpaceOnUse" x="36" y="109" width="228" height="229">
<rect x="36.4565" y="109" width="227.5" height="228.395" fill="#D9D9D9"/>
</mask>
<g mask="url(#mask1_178_125)">
<path d="M150.206 316.116C128.562 316.116 110.512 308.661 96.0566 293.752C81.6009 278.843 74.373 260.286 74.373 238.081H93.3313C93.3313 255.052 98.7028 269.128 109.446 280.31C120.189 291.492 133.776 297.083 150.206 297.083C166.637 297.083 180.224 291.492 190.967 280.31C201.71 269.128 207.081 255.052 207.081 238.081H226.04C226.04 260.286 218.812 278.843 204.356 293.752C189.9 308.661 171.85 316.116 150.206 316.116ZM83.8521 220.951C81.1664 220.951 78.9151 220.039 77.0982 218.215C75.2814 216.391 74.373 214.131 74.373 211.435C74.373 208.739 75.2814 206.478 77.0982 204.654C78.9151 202.83 81.1664 201.918 83.8521 201.918C86.5379 201.918 88.7892 202.83 90.6061 204.654C92.4229 206.478 93.3313 208.739 93.3313 211.435C93.3313 214.131 92.4229 216.391 90.6061 218.215C88.7892 220.039 86.5379 220.951 83.8521 220.951ZM126.508 220.951C123.823 220.951 121.571 220.039 119.754 218.215C117.938 216.391 117.029 214.131 117.029 211.435C117.029 208.739 117.938 206.478 119.754 204.654C121.571 202.83 123.823 201.918 126.508 201.918C129.194 201.918 131.445 202.83 133.262 204.654C135.079 206.478 135.988 208.739 135.988 211.435C135.988 214.131 135.079 216.391 133.262 218.215C131.445 220.039 129.194 220.951 126.508 220.951ZM173.904 220.951C171.218 220.951 168.967 220.039 167.15 218.215C165.333 216.391 164.425 214.131 164.425 211.435C164.425 208.739 165.333 206.478 167.15 204.654C168.967 202.83 171.218 201.918 173.904 201.918C176.59 201.918 178.841 202.83 180.658 204.654C182.475 206.478 183.383 208.739 183.383 211.435C183.383 214.131 182.475 216.391 180.658 218.215C178.841 220.039 176.59 220.951 173.904 220.951ZM216.56 220.951C213.875 220.951 211.623 220.039 209.807 218.215C207.99 216.391 207.081 214.131 207.081 211.435C207.081 208.739 207.99 206.478 209.807 204.654C211.623 202.83 213.875 201.918 216.56 201.918C219.246 201.918 221.497 202.83 223.314 204.654C225.131 206.478 226.04 208.739 226.04 211.435C226.04 214.131 225.131 216.391 223.314 218.215C221.497 220.039 219.246 220.951 216.56 220.951ZM105.18 194.781C102.495 194.781 100.243 193.869 98.4264 192.045C96.6095 190.221 95.7011 187.961 95.7011 185.265C95.7011 182.568 96.6095 180.308 98.4264 178.484C100.243 176.66 102.495 175.748 105.18 175.748C107.866 175.748 110.117 176.66 111.934 178.484C113.751 180.308 114.659 182.568 114.659 185.265C114.659 187.961 113.751 190.221 111.934 192.045C110.117 193.869 107.866 194.781 105.18 194.781ZM195.232 194.781C192.547 194.781 190.295 193.869 188.478 192.045C186.662 190.221 185.753 187.961 185.753 185.265C185.753 182.568 186.662 180.308 188.478 178.484C190.295 176.66 192.547 175.748 195.232 175.748C197.918 175.748 200.169 176.66 201.986 178.484C203.803 180.308 204.711 182.568 204.711 185.265C204.711 187.961 203.803 190.221 201.986 192.045C200.169 193.869 197.918 194.781 195.232 194.781ZM150.206 192.402C147.521 192.402 145.269 191.49 143.452 189.666C141.636 187.842 140.727 185.582 140.727 182.885C140.727 180.189 141.636 177.929 143.452 176.105C145.269 174.281 147.521 173.369 150.206 173.369C152.892 173.369 155.143 174.281 156.96 176.105C158.777 177.929 159.685 180.189 159.685 182.885C159.685 185.582 158.777 187.842 156.96 189.666C155.143 191.49 152.892 192.402 150.206 192.402ZM126.508 168.611C123.823 168.611 121.571 167.699 119.754 165.875C117.938 164.051 117.029 161.791 117.029 159.094C117.029 156.398 117.938 154.138 119.754 152.314C121.571 150.49 123.823 149.578 126.508 149.578C129.194 149.578 131.445 150.49 133.262 152.314C135.079 154.138 135.988 156.398 135.988 159.094C135.988 161.791 135.079 164.051 133.262 165.875C131.445 167.699 129.194 168.611 126.508 168.611ZM173.904 168.611C171.218 168.611 168.967 167.699 167.15 165.875C165.333 164.051 164.425 161.791 164.425 159.094C164.425 156.398 165.333 154.138 167.15 152.314C168.967 150.49 171.218 149.578 173.904 149.578C176.59 149.578 178.841 150.49 180.658 152.314C182.475 154.138 183.383 156.398 183.383 159.094C183.383 161.791 182.475 164.051 180.658 165.875C178.841 167.699 176.59 168.611 173.904 168.611ZM150.206 144.82C147.521 144.82 145.269 143.908 143.452 142.084C141.636 140.26 140.727 137.999 140.727 135.303C140.727 132.607 141.636 130.347 143.452 128.523C145.269 126.699 147.521 125.787 150.206 125.787C152.892 125.787 155.143 126.699 156.96 128.523C158.777 130.347 159.685 132.607 159.685 135.303C159.685 137.999 158.777 140.26 156.96 142.084C155.143 143.908 152.892 144.82 150.206 144.82Z" fill="white"/>
</g>
</g>
<path d="M29.6662 145C29.5904 144.053 29.2353 143.314 28.6009 142.784C27.9759 142.254 27.0241 141.989 25.7457 141.989C24.9313 141.989 24.2637 142.088 23.7429 142.287C23.2315 142.476 22.8527 142.737 22.6065 143.068C22.3603 143.4 22.2325 143.778 22.223 144.205C22.2041 144.555 22.2656 144.872 22.4077 145.156C22.5592 145.431 22.7959 145.682 23.1179 145.909C23.4399 146.127 23.8518 146.326 24.3537 146.506C24.8556 146.686 25.4522 146.847 26.1435 146.989L28.5298 147.5C30.1397 147.841 31.5175 148.291 32.6634 148.849C33.8092 149.408 34.7467 150.066 35.4759 150.824C36.205 151.572 36.7401 152.415 37.081 153.352C37.4313 154.29 37.6113 155.312 37.6207 156.42C37.6113 158.333 37.133 159.953 36.1861 161.278C35.2391 162.604 33.8849 163.613 32.1236 164.304C30.3717 164.995 28.2647 165.341 25.8026 165.341C23.2741 165.341 21.0677 164.967 19.1832 164.219C17.3082 163.471 15.8499 162.32 14.8082 160.767C13.776 159.205 13.2552 157.206 13.2457 154.773H20.7457C20.7931 155.663 21.0156 156.411 21.4134 157.017C21.8111 157.623 22.3698 158.082 23.0895 158.395C23.8187 158.707 24.6851 158.864 25.6889 158.864C26.5317 158.864 27.2372 158.759 27.8054 158.551C28.3736 158.343 28.8045 158.054 29.098 157.685C29.3916 157.315 29.5431 156.894 29.5526 156.42C29.5431 155.975 29.3963 155.587 29.1122 155.256C28.8376 154.915 28.383 154.612 27.7486 154.347C27.1141 154.072 26.2571 153.816 25.1776 153.58L22.2798 152.955C19.7041 152.396 17.6728 151.463 16.1861 150.156C14.7088 148.84 13.9749 147.045 13.9844 144.773C13.9749 142.926 14.4673 141.312 15.4616 139.929C16.4654 138.537 17.8527 137.453 19.6236 136.676C21.4039 135.9 23.4446 135.511 25.7457 135.511C28.0942 135.511 30.1255 135.904 31.8395 136.69C33.5535 137.476 34.8745 138.584 35.8026 140.014C36.7401 141.435 37.2135 143.097 37.223 145H29.6662ZM48.5795 152.727V165H40.7386V135.909H48.2955V147.33H48.5227C49.0152 145.937 49.8343 144.853 50.9801 144.077C52.1259 143.291 53.5038 142.898 55.1136 142.898C56.6572 142.898 57.9972 143.248 59.1335 143.949C60.2794 144.65 61.1648 145.616 61.7898 146.847C62.4242 148.078 62.7367 149.489 62.7273 151.08V165H54.8864V152.727C54.8958 151.648 54.6259 150.8 54.0767 150.185C53.5369 149.569 52.7652 149.261 51.7614 149.261C51.1269 149.261 50.5682 149.403 50.0852 149.688C49.6117 149.962 49.2424 150.36 48.9773 150.881C48.7216 151.392 48.589 152.008 48.5795 152.727ZM80.7457 155.455V143.182H88.5866V165H81.1435V160.852H80.9162C80.4427 162.244 79.6141 163.333 78.4304 164.119C77.2467 164.896 75.8404 165.284 74.2116 165.284C72.687 165.284 71.3518 164.934 70.206 164.233C69.0696 163.532 68.1842 162.566 67.5497 161.335C66.9247 160.104 66.6075 158.693 66.598 157.102V143.182H74.4389V155.455C74.4484 156.534 74.723 157.382 75.2628 157.997C75.812 158.613 76.5791 158.92 77.5639 158.92C78.2173 158.92 78.7808 158.783 79.2543 158.509C79.7372 158.224 80.1065 157.827 80.3622 157.315C80.6274 156.795 80.7552 156.174 80.7457 155.455ZM100.472 165.284C98.9193 165.284 97.4893 164.877 96.1825 164.062C94.8852 163.248 93.8435 162.012 93.0575 160.355C92.281 158.698 91.8928 156.61 91.8928 154.091C91.8928 151.458 92.3 149.318 93.1143 147.67C93.9382 146.023 94.9988 144.815 96.2962 144.048C97.603 143.281 98.9761 142.898 100.415 142.898C101.495 142.898 102.442 143.087 103.256 143.466C104.071 143.835 104.753 144.332 105.302 144.957C105.851 145.573 106.268 146.25 106.552 146.989H106.665V135.909H114.506V165H106.722V161.42H106.552C106.249 162.159 105.813 162.822 105.245 163.409C104.686 163.987 104.004 164.446 103.2 164.787C102.404 165.118 101.495 165.284 100.472 165.284ZM103.37 159.261C104.09 159.261 104.705 159.053 105.217 158.636C105.737 158.21 106.135 157.614 106.41 156.847C106.694 156.07 106.836 155.152 106.836 154.091C106.836 153.011 106.694 152.088 106.41 151.321C106.135 150.545 105.737 149.953 105.217 149.545C104.705 149.129 104.09 148.92 103.37 148.92C102.65 148.92 102.035 149.129 101.523 149.545C101.022 149.953 100.633 150.545 100.359 151.321C100.094 152.088 99.9609 153.011 99.9609 154.091C99.9609 155.17 100.094 156.098 100.359 156.875C100.633 157.642 101.022 158.234 101.523 158.651C102.035 159.058 102.65 159.261 103.37 159.261ZM126.254 165.284C124.701 165.284 123.271 164.877 121.964 164.062C120.666 163.248 119.625 162.012 118.839 160.355C118.062 158.698 117.674 156.61 117.674 154.091C117.674 151.458 118.081 149.318 118.896 147.67C119.719 146.023 120.78 144.815 122.077 144.048C123.384 143.281 124.757 142.898 126.197 142.898C127.276 142.898 128.223 143.087 129.038 143.466C129.852 143.835 130.534 144.332 131.083 144.957C131.632 145.573 132.049 146.25 132.333 146.989H132.447V135.909H140.288V165H132.504V161.42H132.333C132.03 162.159 131.594 162.822 131.026 163.409C130.468 163.987 129.786 164.446 128.981 164.787C128.185 165.118 127.276 165.284 126.254 165.284ZM129.151 159.261C129.871 159.261 130.487 159.053 130.998 158.636C131.519 158.21 131.916 157.614 132.191 156.847C132.475 156.07 132.617 155.152 132.617 154.091C132.617 153.011 132.475 152.088 132.191 151.321C131.916 150.545 131.519 149.953 130.998 149.545C130.487 149.129 129.871 148.92 129.151 148.92C128.432 148.92 127.816 149.129 127.305 149.545C126.803 149.953 126.415 150.545 126.14 151.321C125.875 152.088 125.742 153.011 125.742 154.091C125.742 155.17 125.875 156.098 126.14 156.875C126.415 157.642 126.803 158.234 127.305 158.651C127.816 159.058 128.432 159.261 129.151 159.261ZM151.978 152.727V165H144.137V135.909H151.694V147.33H151.921C152.414 145.937 153.233 144.853 154.379 144.077C155.524 143.291 156.902 142.898 158.512 142.898C160.056 142.898 161.396 143.248 162.532 143.949C163.678 144.65 164.563 145.616 165.188 146.847C165.823 148.078 166.135 149.489 166.126 151.08V165H158.285V152.727C158.294 151.648 158.024 150.8 157.475 150.185C156.935 149.569 156.164 149.261 155.16 149.261C154.525 149.261 153.967 149.403 153.484 149.688C153.01 149.962 152.641 150.36 152.376 150.881C152.12 151.392 151.987 152.008 151.978 152.727ZM176.076 165.341C174.684 165.341 173.453 165.114 172.383 164.659C171.322 164.195 170.489 163.494 169.883 162.557C169.277 161.619 168.974 160.426 168.974 158.977C168.974 157.784 169.177 156.766 169.585 155.923C169.992 155.071 170.56 154.375 171.289 153.835C172.018 153.295 172.866 152.884 173.832 152.599C174.807 152.315 175.858 152.131 176.985 152.045C178.207 151.951 179.187 151.837 179.925 151.705C180.674 151.562 181.213 151.368 181.545 151.122C181.876 150.866 182.042 150.53 182.042 150.114V150.057C182.042 149.489 181.824 149.053 181.388 148.75C180.953 148.447 180.394 148.295 179.712 148.295C178.964 148.295 178.353 148.461 177.88 148.793C177.416 149.115 177.137 149.612 177.042 150.284H169.826C169.921 148.958 170.342 147.737 171.09 146.619C171.848 145.492 172.951 144.593 174.4 143.92C175.849 143.239 177.657 142.898 179.826 142.898C181.388 142.898 182.79 143.082 184.031 143.452C185.271 143.812 186.327 144.318 187.198 144.972C188.069 145.616 188.732 146.373 189.187 147.244C189.651 148.106 189.883 149.044 189.883 150.057V165H182.553V161.932H182.383C181.947 162.746 181.417 163.404 180.792 163.906C180.176 164.408 179.471 164.773 178.675 165C177.889 165.227 177.023 165.341 176.076 165.341ZM178.633 160.398C179.229 160.398 179.788 160.275 180.309 160.028C180.839 159.782 181.27 159.427 181.602 158.963C181.933 158.499 182.099 157.936 182.099 157.273V155.455C181.89 155.54 181.668 155.62 181.431 155.696C181.204 155.772 180.958 155.843 180.692 155.909C180.437 155.975 180.162 156.037 179.869 156.094C179.585 156.151 179.286 156.203 178.974 156.25C178.368 156.345 177.871 156.501 177.482 156.719C177.103 156.927 176.819 157.188 176.63 157.5C176.45 157.803 176.36 158.144 176.36 158.523C176.36 159.129 176.573 159.593 176.999 159.915C177.425 160.237 177.97 160.398 178.633 160.398ZM198.402 135.909L205.973 158.807H206.271L213.828 135.909H219.624L209.368 165H202.862L192.621 135.909H198.402ZM227.241 165.44C225.858 165.44 224.613 165.194 223.505 164.702C222.406 164.2 221.535 163.461 220.891 162.486C220.257 161.51 219.94 160.308 219.94 158.878C219.94 157.647 220.167 156.629 220.621 155.824C221.076 155.019 221.696 154.375 222.482 153.892C223.268 153.409 224.154 153.045 225.138 152.798C226.133 152.543 227.16 152.358 228.221 152.244C229.499 152.112 230.536 151.993 231.332 151.889C232.127 151.776 232.705 151.605 233.065 151.378C233.434 151.141 233.619 150.777 233.619 150.284V150.199C233.619 149.129 233.301 148.3 232.667 147.713C232.032 147.126 231.119 146.832 229.925 146.832C228.666 146.832 227.667 147.107 226.928 147.656C226.199 148.205 225.707 148.854 225.451 149.602L220.65 148.92C221.029 147.595 221.654 146.487 222.525 145.597C223.396 144.697 224.461 144.025 225.721 143.58C226.98 143.125 228.372 142.898 229.897 142.898C230.948 142.898 231.995 143.021 233.036 143.267C234.078 143.513 235.03 143.92 235.891 144.489C236.753 145.047 237.444 145.81 237.965 146.776C238.496 147.741 238.761 148.949 238.761 150.398V165H233.817V162.003H233.647C233.335 162.609 232.894 163.177 232.326 163.707C231.767 164.228 231.062 164.65 230.21 164.972C229.367 165.284 228.377 165.44 227.241 165.44ZM228.576 161.662C229.608 161.662 230.503 161.458 231.261 161.051C232.018 160.634 232.601 160.085 233.008 159.403C233.424 158.722 233.633 157.978 233.633 157.173V154.602C233.472 154.735 233.197 154.858 232.809 154.972C232.43 155.085 232.004 155.185 231.531 155.27C231.057 155.355 230.588 155.431 230.124 155.497C229.66 155.563 229.258 155.62 228.917 155.668C228.15 155.772 227.463 155.942 226.857 156.179C226.251 156.416 225.773 156.747 225.423 157.173C225.072 157.59 224.897 158.13 224.897 158.793C224.897 159.74 225.243 160.455 225.934 160.938C226.625 161.42 227.506 161.662 228.576 161.662ZM246.346 173.182C245.645 173.182 244.996 173.125 244.4 173.011C243.813 172.907 243.344 172.784 242.994 172.642L244.187 168.636C244.935 168.854 245.603 168.958 246.19 168.949C246.777 168.939 247.293 168.755 247.738 168.395C248.192 168.045 248.576 167.457 248.888 166.634L249.329 165.455L241.417 143.182H246.871L251.9 159.659H252.127L257.17 143.182H262.638L253.903 167.642C253.496 168.797 252.956 169.787 252.283 170.611C251.611 171.444 250.787 172.079 249.812 172.514C248.846 172.959 247.691 173.182 246.346 173.182ZM280.103 155.824V143.182H285.245V165H280.259V161.122H280.032C279.54 162.344 278.73 163.343 277.603 164.119C276.486 164.896 275.108 165.284 273.469 165.284C272.04 165.284 270.775 164.967 269.677 164.332C268.588 163.688 267.736 162.756 267.12 161.534C266.504 160.303 266.197 158.816 266.197 157.074V143.182H271.339V156.278C271.339 157.661 271.718 158.759 272.475 159.574C273.233 160.388 274.227 160.795 275.458 160.795C276.216 160.795 276.95 160.611 277.66 160.241C278.37 159.872 278.952 159.323 279.407 158.594C279.871 157.855 280.103 156.932 280.103 155.824Z" fill="white"/>
<mask id="mask2_178_125" style="mask-type:alpha" maskUnits="userSpaceOnUse" x="102" y="59" width="93" height="91">
<rect x="102" y="150" width="91" height="92.8" transform="rotate(-90 102 150)" fill="#D9D9D9"/>
</mask>
<g mask="url(#mask2_178_125)">
<path d="M140.316 142.593H132.473L132.333 91.4054C132.333 89.7623 131.786 88.4036 130.69 87.3293C129.594 86.255 128.209 85.7179 126.533 85.7179C124.858 85.7179 123.472 86.255 122.377 87.3293C121.281 88.4036 120.733 89.7623 120.733 91.4054C120.733 93.0484 121.281 94.4071 122.377 95.4814C123.472 96.5557 124.858 97.0929 126.533 97.0929V104.676C122.731 104.676 119.525 103.397 116.915 100.837C114.305 98.2778 113 95.1338 113 91.4054C113 87.6769 114.305 84.533 116.915 81.9736C119.525 79.4142 122.731 78.1345 126.533 78.1345C130.336 78.1345 133.542 79.4142 136.152 81.9736C138.762 84.533 140.067 87.6769 140.067 91.4054L140.316 142.593ZM171 80.0304H163.267C163.267 78.3873 162.719 77.0286 161.623 75.9543C160.528 74.88 159.142 74.3429 157.467 74.3429C155.791 74.3429 154.406 74.88 153.31 75.9543C152.214 77.0286 151.667 78.3873 151.667 80.0304L151.714 142.593H144.166L143.933 80.0304C143.933 76.3019 145.238 73.158 147.848 70.5986C150.458 68.0392 153.664 66.7595 157.467 66.7595C161.269 66.7595 164.475 68.0392 167.085 70.5986C169.695 73.158 171 76.3019 171 80.0304Z" fill="white"/>
</g>
<defs>
<linearGradient id="paint0_linear_178_125" x1="150" y1="0" x2="150" y2="300" gradientUnits="userSpaceOnUse">
<stop stop-color="#62B4FF"/>
<stop offset="1" stop-color="#3D7E63"/>
</linearGradient>
</defs>
</svg>
