<svg width="276" height="115" viewBox="0 0 276 115" fill="none" xmlns="http://www.w3.org/2000/svg">
<path d="M17.6662 86C17.5904 85.053 17.2353 84.3144 16.6009 83.7841C15.9759 83.2538 15.0241 82.9886 13.7457 82.9886C12.9313 82.9886 12.2637 83.0881 11.7429 83.2869C11.2315 83.4763 10.8527 83.7367 10.6065 84.0682C10.3603 84.3996 10.2325 84.7784 10.223 85.2045C10.2041 85.5549 10.2656 85.8722 10.4077 86.1562C10.5592 86.4309 10.7959 86.6818 11.1179 86.9091C11.4399 87.1269 11.8518 87.3258 12.3537 87.5057C12.8556 87.6856 13.4522 87.8466 14.1435 87.9886L16.5298 88.5C18.1397 88.8409 19.5175 89.2907 20.6634 89.8494C21.8092 90.4081 22.7467 91.0663 23.4759 91.8239C24.205 92.572 24.7401 93.4148 25.081 94.3523C25.4313 95.2898 25.6113 96.3125 25.6207 97.4205C25.6113 99.3333 25.133 100.953 24.1861 102.278C23.2391 103.604 21.8849 104.613 20.1236 105.304C18.3717 105.995 16.2647 106.341 13.8026 106.341C11.2741 106.341 9.06771 105.967 7.18324 105.219C5.30824 104.471 3.84991 103.32 2.80824 101.767C1.77604 100.205 1.25521 98.2064 1.24574 95.7727H8.74574C8.79309 96.6629 9.01563 97.411 9.41335 98.017C9.81108 98.6231 10.3698 99.0824 11.0895 99.3949C11.8187 99.7074 12.6851 99.8636 13.6889 99.8636C14.5317 99.8636 15.2372 99.7595 15.8054 99.5511C16.3736 99.3428 16.8045 99.054 17.098 98.6847C17.3916 98.3153 17.5431 97.8939 17.5526 97.4205C17.5431 96.9754 17.3963 96.5871 17.1122 96.2557C16.8376 95.9148 16.383 95.6117 15.7486 95.3466C15.1141 95.072 14.2571 94.8163 13.1776 94.5795L10.2798 93.9545C7.70407 93.3958 5.67282 92.4631 4.18608 91.1562C2.70881 89.84 1.97491 88.0455 1.98438 85.7727C1.97491 83.9261 2.46733 82.3116 3.46165 80.929C4.46544 79.5369 5.85275 78.4527 7.62358 77.6761C9.40388 76.8996 11.4446 76.5114 13.7457 76.5114C16.0942 76.5114 18.1255 76.9044 19.8395 77.6903C21.5535 78.4763 22.8745 79.5843 23.8026 81.0142C24.7401 82.4347 25.2135 84.0966 25.223 86H17.6662ZM36.5795 93.7273V106H28.7386V76.9091H36.2955V88.3295H36.5227C37.0152 86.9375 37.8343 85.8532 38.9801 85.0767C40.1259 84.2907 41.5038 83.8977 43.1136 83.8977C44.6572 83.8977 45.9972 84.2481 47.1335 84.9489C48.2794 85.6496 49.1648 86.6155 49.7898 87.8466C50.4242 89.0777 50.7367 90.4886 50.7273 92.0795V106H42.8864V93.7273C42.8958 92.6477 42.6259 91.8002 42.0767 91.1847C41.5369 90.5691 40.7652 90.2614 39.7614 90.2614C39.1269 90.2614 38.5682 90.4034 38.0852 90.6875C37.6117 90.9621 37.2424 91.3598 36.9773 91.8807C36.7216 92.392 36.589 93.0076 36.5795 93.7273ZM68.7457 96.4545V84.1818H76.5866V106H69.1435V101.852H68.9162C68.4427 103.244 67.6141 104.333 66.4304 105.119C65.2467 105.896 63.8404 106.284 62.2116 106.284C60.687 106.284 59.3518 105.934 58.206 105.233C57.0696 104.532 56.1842 103.566 55.5497 102.335C54.9247 101.104 54.6075 99.6932 54.598 98.1023V84.1818H62.4389V96.4545C62.4484 97.5341 62.723 98.3816 63.2628 98.9972C63.812 99.6127 64.5791 99.9205 65.5639 99.9205C66.2173 99.9205 66.7808 99.7831 67.2543 99.5085C67.7372 99.2244 68.1065 98.8267 68.3622 98.3153C68.6274 97.7945 68.7552 97.1742 68.7457 96.4545ZM88.4723 106.284C86.9193 106.284 85.4893 105.877 84.1825 105.062C82.8852 104.248 81.8435 103.012 81.0575 101.355C80.281 99.6979 79.8928 97.6098 79.8928 95.0909C79.8928 92.4583 80.3 90.3182 81.1143 88.6705C81.9382 87.0227 82.9988 85.8153 84.2962 85.0483C85.603 84.2812 86.9761 83.8977 88.4155 83.8977C89.495 83.8977 90.442 84.0871 91.2564 84.4659C92.0708 84.8352 92.7526 85.3324 93.3018 85.9574C93.8511 86.5729 94.2678 87.25 94.5518 87.9886H94.6655V76.9091H102.506V106H94.7223V102.42H94.5518C94.2488 103.159 93.8132 103.822 93.245 104.409C92.6863 104.987 92.0045 105.446 91.1996 105.787C90.4041 106.118 89.495 106.284 88.4723 106.284ZM91.37 100.261C92.0897 100.261 92.7053 100.053 93.2166 99.6364C93.7375 99.2102 94.1352 98.6136 94.4098 97.8466C94.6939 97.0701 94.8359 96.1515 94.8359 95.0909C94.8359 94.0114 94.6939 93.0881 94.4098 92.321C94.1352 91.5445 93.7375 90.9527 93.2166 90.5455C92.7053 90.1288 92.0897 89.9205 91.37 89.9205C90.6503 89.9205 90.0348 90.1288 89.5234 90.5455C89.0215 90.9527 88.6333 91.5445 88.3587 92.321C88.0935 93.0881 87.9609 94.0114 87.9609 95.0909C87.9609 96.1705 88.0935 97.0985 88.3587 97.875C88.6333 98.642 89.0215 99.2339 89.5234 99.6506C90.0348 100.058 90.6503 100.261 91.37 100.261ZM114.254 106.284C112.701 106.284 111.271 105.877 109.964 105.062C108.666 104.248 107.625 103.012 106.839 101.355C106.062 99.6979 105.674 97.6098 105.674 95.0909C105.674 92.4583 106.081 90.3182 106.896 88.6705C107.719 87.0227 108.78 85.8153 110.077 85.0483C111.384 84.2812 112.757 83.8977 114.197 83.8977C115.276 83.8977 116.223 84.0871 117.038 84.4659C117.852 84.8352 118.534 85.3324 119.083 85.9574C119.632 86.5729 120.049 87.25 120.333 87.9886H120.447V76.9091H128.288V106H120.504V102.42H120.333C120.03 103.159 119.594 103.822 119.026 104.409C118.468 104.987 117.786 105.446 116.981 105.787C116.185 106.118 115.276 106.284 114.254 106.284ZM117.151 100.261C117.871 100.261 118.487 100.053 118.998 99.6364C119.519 99.2102 119.916 98.6136 120.191 97.8466C120.475 97.0701 120.617 96.1515 120.617 95.0909C120.617 94.0114 120.475 93.0881 120.191 92.321C119.916 91.5445 119.519 90.9527 118.998 90.5455C118.487 90.1288 117.871 89.9205 117.151 89.9205C116.432 89.9205 115.816 90.1288 115.305 90.5455C114.803 90.9527 114.415 91.5445 114.14 92.321C113.875 93.0881 113.742 94.0114 113.742 95.0909C113.742 96.1705 113.875 97.0985 114.14 97.875C114.415 98.642 114.803 99.2339 115.305 99.6506C115.816 100.058 116.432 100.261 117.151 100.261ZM139.978 93.7273V106H132.137V76.9091H139.694V88.3295H139.921C140.414 86.9375 141.233 85.8532 142.379 85.0767C143.524 84.2907 144.902 83.8977 146.512 83.8977C148.056 83.8977 149.396 84.2481 150.532 84.9489C151.678 85.6496 152.563 86.6155 153.188 87.8466C153.823 89.0777 154.135 90.4886 154.126 92.0795V106H146.285V93.7273C146.294 92.6477 146.024 91.8002 145.475 91.1847C144.935 90.5691 144.164 90.2614 143.16 90.2614C142.525 90.2614 141.967 90.4034 141.484 90.6875C141.01 90.9621 140.641 91.3598 140.376 91.8807C140.12 92.392 139.987 93.0076 139.978 93.7273ZM164.076 106.341C162.684 106.341 161.453 106.114 160.383 105.659C159.322 105.195 158.489 104.494 157.883 103.557C157.277 102.619 156.974 101.426 156.974 99.9773C156.974 98.7841 157.177 97.7661 157.585 96.9233C157.992 96.071 158.56 95.375 159.289 94.8352C160.018 94.2955 160.866 93.8835 161.832 93.5994C162.807 93.3153 163.858 93.1307 164.985 93.0455C166.207 92.9508 167.187 92.8371 167.925 92.7045C168.674 92.5625 169.213 92.3684 169.545 92.1222C169.876 91.8665 170.042 91.5303 170.042 91.1136V91.0568C170.042 90.4886 169.824 90.053 169.388 89.75C168.953 89.447 168.394 89.2955 167.712 89.2955C166.964 89.2955 166.353 89.4612 165.88 89.7926C165.416 90.1146 165.137 90.6117 165.042 91.2841H157.826C157.921 89.9583 158.342 88.7367 159.09 87.6193C159.848 86.4924 160.951 85.5928 162.4 84.9205C163.849 84.2386 165.657 83.8977 167.826 83.8977C169.388 83.8977 170.79 84.0824 172.031 84.4517C173.271 84.8116 174.327 85.3182 175.198 85.9716C176.069 86.6155 176.732 87.3731 177.187 88.2443C177.651 89.1061 177.883 90.0436 177.883 91.0568V106H170.553V102.932H170.383C169.947 103.746 169.417 104.404 168.792 104.906C168.176 105.408 167.471 105.773 166.675 106C165.889 106.227 165.023 106.341 164.076 106.341ZM166.633 101.398C167.229 101.398 167.788 101.275 168.309 101.028C168.839 100.782 169.27 100.427 169.602 99.9631C169.933 99.4991 170.099 98.9356 170.099 98.2727V96.4545C169.89 96.5398 169.668 96.6203 169.431 96.696C169.204 96.7718 168.958 96.8428 168.692 96.9091C168.437 96.9754 168.162 97.0369 167.869 97.0938C167.585 97.1506 167.286 97.2027 166.974 97.25C166.368 97.3447 165.871 97.5009 165.482 97.7188C165.103 97.9271 164.819 98.1875 164.63 98.5C164.45 98.803 164.36 99.1439 164.36 99.5227C164.36 100.129 164.573 100.593 164.999 100.915C165.425 101.237 165.97 101.398 166.633 101.398ZM186.402 76.9091L193.973 99.8068H194.271L201.828 76.9091H207.624L197.368 106H190.862L180.621 76.9091H186.402ZM215.241 106.44C213.858 106.44 212.613 106.194 211.505 105.702C210.406 105.2 209.535 104.461 208.891 103.486C208.257 102.51 207.94 101.308 207.94 99.8778C207.94 98.6468 208.167 97.6288 208.621 96.8239C209.076 96.0189 209.696 95.375 210.482 94.892C211.268 94.4091 212.154 94.0445 213.138 93.7983C214.133 93.5426 215.16 93.358 216.221 93.2443C217.499 93.1117 218.536 92.9934 219.332 92.8892C220.127 92.7756 220.705 92.6051 221.065 92.3778C221.434 92.1411 221.619 91.7765 221.619 91.2841V91.1989C221.619 90.1288 221.301 89.3002 220.667 88.7131C220.032 88.1259 219.119 87.8324 217.925 87.8324C216.666 87.8324 215.667 88.107 214.928 88.6562C214.199 89.2055 213.707 89.8542 213.451 90.6023L208.65 89.9205C209.029 88.5947 209.654 87.4867 210.525 86.5966C211.396 85.697 212.461 85.0246 213.721 84.5795C214.98 84.125 216.372 83.8977 217.897 83.8977C218.948 83.8977 219.995 84.0208 221.036 84.267C222.078 84.5133 223.03 84.9205 223.891 85.4886C224.753 86.0473 225.444 86.8097 225.965 87.7756C226.496 88.7415 226.761 89.9489 226.761 91.3977V106H221.817V103.003H221.647C221.335 103.609 220.894 104.177 220.326 104.707C219.767 105.228 219.062 105.65 218.21 105.972C217.367 106.284 216.377 106.44 215.241 106.44ZM216.576 102.662C217.608 102.662 218.503 102.458 219.261 102.051C220.018 101.634 220.601 101.085 221.008 100.403C221.424 99.7216 221.633 98.9782 221.633 98.1733V95.6023C221.472 95.7348 221.197 95.858 220.809 95.9716C220.43 96.0852 220.004 96.1847 219.531 96.2699C219.057 96.3551 218.588 96.4309 218.124 96.4972C217.66 96.5634 217.258 96.6203 216.917 96.6676C216.15 96.7718 215.463 96.9422 214.857 97.179C214.251 97.4157 213.773 97.7472 213.423 98.1733C213.072 98.59 212.897 99.1297 212.897 99.7926C212.897 100.74 213.243 101.455 213.934 101.938C214.625 102.42 215.506 102.662 216.576 102.662ZM234.346 114.182C233.645 114.182 232.996 114.125 232.4 114.011C231.813 113.907 231.344 113.784 230.994 113.642L232.187 109.636C232.935 109.854 233.603 109.958 234.19 109.949C234.777 109.939 235.293 109.755 235.738 109.395C236.192 109.045 236.576 108.457 236.888 107.634L237.329 106.455L229.417 84.1818H234.871L239.9 100.659H240.127L245.17 84.1818H250.638L241.903 108.642C241.496 109.797 240.956 110.787 240.283 111.611C239.611 112.444 238.787 113.079 237.812 113.514C236.846 113.959 235.691 114.182 234.346 114.182ZM268.103 96.8239V84.1818H273.245V106H268.259V102.122H268.032C267.54 103.344 266.73 104.343 265.603 105.119C264.486 105.896 263.108 106.284 261.469 106.284C260.04 106.284 258.775 105.967 257.677 105.332C256.588 104.688 255.736 103.756 255.12 102.534C254.504 101.303 254.197 99.8163 254.197 98.0739V84.1818H259.339V97.2784C259.339 98.661 259.718 99.7595 260.475 100.574C261.233 101.388 262.227 101.795 263.458 101.795C264.216 101.795 264.95 101.611 265.66 101.241C266.37 100.872 266.952 100.323 267.407 99.5938C267.871 98.8551 268.103 97.9318 268.103 96.8239Z" fill="white"/>
<mask id="mask0_1_173" style="mask-type:alpha" maskUnits="userSpaceOnUse" x="90" y="0" width="93" height="91">
<rect x="90" y="91" width="91" height="92.8" transform="rotate(-90 90 91)" fill="#D9D9D9"/>
</mask>
<g mask="url(#mask0_1_173)">
<path d="M128.316 83.5928H120.473L120.333 32.4054C120.333 30.7623 119.786 29.4036 118.69 28.3293C117.594 27.255 116.209 26.7179 114.533 26.7179C112.858 26.7179 111.472 27.255 110.377 28.3293C109.281 29.4036 108.733 30.7623 108.733 32.4054C108.733 34.0484 109.281 35.4071 110.377 36.4814C111.472 37.5557 112.858 38.0929 114.533 38.0929V45.6762C110.731 45.6762 107.525 44.3965 104.915 41.8371C102.305 39.2778 101 36.1338 101 32.4054C101 28.6769 102.305 25.533 104.915 22.9736C107.525 20.4142 110.731 19.1345 114.533 19.1345C118.336 19.1345 121.542 20.4142 124.152 22.9736C126.762 25.533 128.067 28.6769 128.067 32.4054L128.316 83.5928ZM159 21.0304H151.267C151.267 19.3873 150.719 18.0286 149.623 16.9543C148.528 15.88 147.142 15.3429 145.467 15.3429C143.791 15.3429 142.406 15.88 141.31 16.9543C140.214 18.0286 139.667 19.3873 139.667 21.0304L139.714 83.593H132.166L131.933 21.0304C131.933 17.3019 133.238 14.158 135.848 11.5986C138.458 9.03923 141.664 7.75955 145.467 7.75955C149.269 7.75955 152.475 9.03923 155.085 11.5986C157.695 14.158 159 17.3019 159 21.0304Z" fill="white"/>
</g>
</svg>
