<svg width="55" height="55" viewBox="0 0 55 55" fill="none" xmlns="http://www.w3.org/2000/svg">
<mask id="mask0_178_174" style="mask-type:alpha" maskUnits="userSpaceOnUse" x="0" y="0" width="55" height="55">
<rect width="55" height="55" fill="#D9D9D9"/>
</mask>
<g mask="url(#mask0_178_174)">
<path d="M23.0047 35.8732H31.9951C32.5195 35.8732 32.9591 35.6958 33.3139 35.341C33.6687 34.9863 33.8461 34.5467 33.8461 34.0222V27.3235C33.8461 26.799 33.6687 26.3594 33.3139 26.0047C32.9591 25.6499 32.5195 25.4725 31.9951 25.4725H31.5985V23.1808C31.5985 22.038 31.2085 21.0765 30.4284 20.2964C29.6483 19.5164 28.6869 19.1264 27.544 19.1264C26.4011 19.1264 25.4396 19.5164 24.6596 20.2964C23.8795 21.0765 23.4895 22.038 23.4895 23.1808V25.4725H23.0047C22.4803 25.4725 22.0407 25.6499 21.6859 26.0047C21.3312 26.3594 21.1538 26.799 21.1538 27.3235V34.0222C21.1538 34.5467 21.3312 34.9863 21.6859 35.341C22.0407 35.6958 22.4803 35.8732 23.0047 35.8732ZM25.2523 25.4725V23.1808C25.2523 22.5315 25.4719 21.9873 25.9112 21.548C26.3504 21.1088 26.8947 20.8892 27.544 20.8892C28.1933 20.8892 28.7376 21.1088 29.1768 21.548C29.616 21.9873 29.8356 22.5315 29.8356 23.1808V25.4725H25.2523ZM27.4999 47.7634C27.2913 47.7634 27.0724 47.7443 26.8432 47.7062C26.6141 47.668 26.3993 47.6107 26.1989 47.5343C21.6896 45.8155 18.1056 42.9003 15.4466 38.7885C12.7877 34.6767 11.4583 30.2263 11.4583 25.4373V15.6228C11.4583 14.8366 11.6819 14.1291 12.1292 13.5002C12.5765 12.8713 13.155 12.4154 13.8645 12.1324L26.2043 7.54904C26.6508 7.38744 27.0827 7.30664 27.4999 7.30664C27.9171 7.30664 28.349 7.38744 28.7956 7.54904L41.1353 12.1324C41.8449 12.4154 42.4233 12.8713 42.8706 13.5002C43.3179 14.1291 43.5416 14.8366 43.5416 15.6228V25.4373C43.5416 30.2263 42.2121 34.6767 39.5532 38.7885C36.8943 42.9003 33.3102 45.8155 28.801 47.5343C28.6006 47.6107 28.3858 47.668 28.1566 47.7062C27.9274 47.7443 27.7085 47.7634 27.4999 47.7634ZM27.4999 45.6039C31.4721 44.3435 34.7569 41.8227 37.3541 38.0414C39.9513 34.2602 41.2499 30.0588 41.2499 25.4373V15.5787C41.2499 15.2849 41.1691 15.0205 41.0075 14.7854C40.846 14.5504 40.6183 14.3741 40.3244 14.2566L27.9847 9.67324C27.8378 9.6145 27.6762 9.58513 27.4999 9.58513C27.3237 9.58513 27.1621 9.6145 27.0152 9.67324L14.6754 14.2566C14.3816 14.3741 14.1539 14.5504 13.9923 14.7854C13.8307 15.0205 13.7499 15.2849 13.7499 15.5787V25.4373C13.7499 30.0588 15.0485 34.2602 17.6458 38.0414C20.243 41.8227 23.5277 44.3435 27.4999 45.6039Z" fill="#1C1B1F"/>
</g>
</svg>
